<svg version="1.0" xmlns="http://www.w3.org/2000/svg" width="256" height="256" viewBox="0 0 192 192"><path fill="red" d="M107.4 18.2c-.3.4-.9.6-1.4.3-.5-.3-1.1-.1-1.5.5-.4.6-1 .8-1.5.5-.5-.3-2.9 0-5.2.6-2.4.7-4.5 1.3-4.8 1.3-.3.1-.9.4-1.5.7-.5.4-2.8 1.2-5 1.9-6.3 2-17.3 7.7-26.5 13.9C48.9 45.4 36.4 52.5 29.8 55c-2.9 1.2-5.7 2.6-6.3 3.3-.5.7-3.7 3.2-7 5.6-3.3 2.5-6.2 4.7-6.5 5.1-.3.3-1.9 1.6-3.6 2.8C1.1 75.5-.1 80.2.1 96.9c.1 13.6.3 15.1 3.2 23 1.7 4.7 4.3 10.3 5.7 12.6 1.5 2.2 4.3 6.6 6.1 9.8 1.9 3.2 6.3 8.4 9.8 11.5 7.1 6.3 13.1 10.7 13.1 9.5 0-.4.6.1 1.3 1.2.8 1 1.9 1.5 2.5 1.1.7-.4 1.2-.3 1.2.2 0 1.1 8.4 5.2 11.4 5.7 1.2.1 2.8.5 3.6.8 5.4 2 7.8 2.3 9.8 1.6 1.5-.6 2.1-.5 1.7.1-.6 1 13 .7 22-.5 2.2-.2 6.9-.7 10.4-1 3.5-.3 7.5-1.2 8.9-2.1 1.5-1 2.1-1.1 1.7-.3-.6.9-.3 1 1.1.5 1-.4 3.8-1.4 6-2.2 6-2 9.5-4 8.7-4.8-.4-.4-.1-.5.7-.2 1.9.8 7.6-2.9 6.1-3.9-.6-.3-.9-1.1-.5-1.6.3-.6 1.2-.5 2.2.3 1.3 1.1 1.5 1 .9-.5-.4-1-.3-1.6.2-1.3.5.3 2-.4 3.3-1.7 1.4-1.2 3.4-2.8 4.4-3.5 1.1-.7 1.2-1 .4-.6-.8.4-.2-.7 1.3-2.4 1.6-1.6 2.9-3.4 2.9-3.9 0-1.1 2.7-4.9 3.3-4.6.3.2.6 0 .7-.5.1-.4 2-2.4 4.1-4.4 2.4-2.3 3.6-4.1 3.1-4.9-.4-.8-.3-1 .4-.5.7.4 1.2 0 1.2-1s.3-1.4.7-1.1c.8.8 5.3-5.2 5.3-7.1 0-.7.5-1 1.2-.6.8.5.9.2.5-.9s-.1-1.7.9-1.7c.8 0 1.2-.5.9-1-.3-.6 0-1 .7-1 .8-.1.7-.5-.5-1.4-1.4-1.1-1.5-1.5-.5-1.9 1-.4 1-.8-.2-1.7-1.3-.9-1.2-1 .5-.8 1.2.2 1.9-.2 1.8-1-.2-.6.2-1.2.8-1.2.6 0 .9-.6.6-1.3-.3-.7.4-1.9 1.4-2.6 1.1-.6 1.7-1.6 1.3-2.2-.4-.6-1.2-.5-2.2.3-1.5 1.2-1.6 1.1-.4-.4.8-1 2-1.4 2.9-1.1 1.1.4 1.4.2.9-.5-.4-.7-.2-1.2.5-1.2.6 0 .9-.8.6-2-.3-1 0-1.8.5-1.7.6.1 1.6-1.6 2.4-3.8.8-2.2 1.7-4.7 2.1-5.5.3-.8.7-2.3.8-3.3.1-1.1.6-2.2 1.2-2.5 1.8-1.2 4.5-16.4 3.3-19.2-.1-.3-.3-1.4-.5-2.5-1.5-8.9-4.7-14.7-12.2-22.3-6.5-6.6-22.8-14.9-25.2-12.9-1.1.9-1.3.9-.8 0 .7-1.1-2.4-2.2-8-2.9-1.2-.1-2.7-.5-3.4-.9-1.7-1.1-32.9-1.4-33.5-.3zm27.3 4.2c4.4.5 16.4 4.7 18.8 6.6 1.1.8 3.6 2.4 5.5 3.4 8.2 4.5 11 6.7 11 8.6 0 1 .7 2.3 1.5 2.8 1.8 1 6.7 12.4 5.7 13.2-.4.3-.7 2.3-.7 4.5s-.8 7.1-1.8 11c-1.1 3.8-2 7.4-2.1 8-1.8 7.1-3.1 10.6-4.2 11.6-.8.6-1.4 1.8-1.4 2.7 0 .8-1.1 3-2.6 4.9-1.4 1.8-2.3 3.7-2 4.2.3.5 0 1.1-.7 1.4-.6.3-2.3 2.7-3.7 5.3-1.3 2.7-2.7 5.1-3 5.4-.3.3-2.8 3.4-5.5 6.9-2.8 3.6-5.7 7.3-6.5 8.2-5 5.7-6.3 6.8-7 6.4-.5-.3-6.1-7.4-12.6-15.8-6.4-8.3-12.8-16.4-14.2-17.9-1.3-1.5-2.2-3.3-1.9-4.1.4-1 23.2-30.9 30.9-40.5.8-.9-1.1-1.2-9-1.2h-10.1l-8.2 11.2c-4.5 6.2-9.3 13-10.8 15-1.4 2.1-3 3.7-3.6 3.7-.5 0-2.2-1.6-3.6-3.7-1.5-2-6.3-8.8-10.8-15L73.9 58H62.7l7.9-6.2c4.4-3.5 8.2-6.2 8.7-6 .4.1.7-.4.7-1.2 0-.8.5-1.8 1.2-2.2.7-.5.8-.3.3.7-.5.8.8-.1 2.8-1.9 2.1-1.7 4.2-3.2 4.7-3.2.6 0 1-.4 1-1 0-.5-.8-.7-1.7-.3-1 .3-1.5.3-1.1-.2.4-.4 1.8-.8 3-.9 1.3-.1 2.8-1.1 3.5-2.6.7-1.4 1.3-1.9 1.3-1.2s.5 1 1 .7c.6-.4.8-1.1.4-1.6-.3-.5-.2-.9.3-.8 2.7.5 7.8-3.1 6.5-4.7-.4-.4 0-.3 1 .4 1 .9 1.7.9 2 .2.1-.5 3.2-1.9 6.8-3 6.2-1.8 9.8-1.9 21.7-.6zM72.5 82c13.4 17.4 14.4 18.8 12.8 19.9-.5.3-2.9 3.3-5.4 6.6-2.4 3.3-4.6 6.2-4.9 6.5-.5.4-10 12.5-12.2 15.5-.4.5-2.9 3.6-5.4 6.8-2.5 3.2-4.4 6.1-4.1 6.4.3.3 4.7.5 9.7.5l9.1.1 8-10.9c4.3-6 8.9-12.2 10.1-13.8 1.3-1.6 3-3.9 3.8-5.2 1.8-3 3.1-3 4.9-.2 1.1 1.7 20.3 28 21.7 29.7.2.2 2.3.4 4.6.3l4.3-.2-4.9 4.5c-2.7 2.5-5.3 4.5-5.8 4.5s-.7.4-.4.8c.3.5 0 .9-.7.9-1 0-12.1 6.7-13.7 8.3-.3.3-1.4.7-2.5.8-1.1.2-2.2.7-2.5 1-.3.4-1.2.9-2 1.1-.8.2-3.4.9-5.7 1.7-2.9.9-4.5 1-4.9.3-.3-.6-1.5-.8-2.6-.6-1.1.3-2.1 0-2.5-.9-.3-.8-.9-1.2-1.3-.9-.4.2-1.8-.4-3-1.5-1.3-1.1-2.9-2-3.7-2-.7 0-1.3-.4-1.3-1 0-.5-.7-.6-1.7-.3-1.1.4-1.4.3-.9-.5.4-.6-.5-1.7-2.1-2.6-4.5-2.4-22.3-20.4-22.3-22.5 0-.5-.4-1.1-.9-1.3-1.2-.4-7.9-13.8-8.5-16.8-.2-1.4-.9-3.7-1.5-5.3-1.9-5-3.6-18.7-2.6-22.4.3-1.5 4.4-6.4 9.1-11.1 4.7-4.5 8.2-8.7 7.9-9.3-.4-.5-.3-.8.2-.7.7.2 3.9-2 6.6-4.8 1.5-1.5 2.2-.7 17.2 18.6zm110.9 2.6c.3.8.2 1.2-.4.9-.6-.3-1-1-1-1.6 0-1.4.7-1.1 1.4.7z"/><path d="M179.5 104.1c-.4.6-.5 1.2-.2 1.5.2.3.7-.2 1-1.1.7-1.7.1-2-.8-.4z"/></svg>